<svg width="550" height="217" viewBox="0 0 550 217" fill="none" xmlns="http://www.w3.org/2000/svg">
<path d="M509.611 216.21C506.578 216.21 504.198 215.44 502.472 213.9C500.745 212.407 499.998 210.423 500.231 207.95H503.942C503.895 209.443 504.385 210.633 505.412 211.52C506.438 212.453 507.838 212.92 509.611 212.92H515.141C517.708 212.92 519.855 212.057 521.581 210.33C523.308 208.65 524.451 206.293 525.011 203.26L526.482 195.42C524.988 197.38 523.238 198.967 521.232 200.18C519.272 201.393 517.498 202 515.912 202H511.431C508.631 202 506.415 201.207 504.782 199.62C503.148 198.033 502.331 195.887 502.331 193.18C502.331 192.34 502.401 191.5 502.541 190.66L506.671 167.07H510.451L506.252 190.73C506.112 191.43 506.041 192.083 506.041 192.69C506.041 194.51 506.508 195.957 507.442 197.03C508.422 198.103 509.751 198.64 511.431 198.64H515.842C517.988 198.64 520.158 197.753 522.352 195.98C524.592 194.16 526.295 191.92 527.461 189.26L531.451 167.07H535.162L528.792 203.26C528.045 207.32 526.458 210.493 524.032 212.78C521.652 215.067 518.688 216.21 515.141 216.21H509.611Z" fill="#B2B3B3"/>
<path d="M474.941 202.56C471.627 202.56 469.014 201.697 467.101 199.97C465.234 198.197 464.301 195.84 464.301 192.9C464.301 192.387 464.394 191.523 464.581 190.31L466.471 179.46C467.217 175.4 468.804 172.227 471.231 169.94C473.657 167.653 476.644 166.51 480.191 166.51H485.931C489.104 166.51 491.601 167.257 493.421 168.75C495.287 170.243 496.221 172.273 496.221 174.84C496.221 175.633 496.174 176.24 496.081 176.66H492.441C492.534 176.1 492.581 175.68 492.581 175.4C492.581 173.72 491.974 172.39 490.761 171.41C489.594 170.383 487.984 169.87 485.931 169.87H480.191C477.577 169.87 475.384 170.733 473.611 172.46C471.884 174.14 470.764 176.473 470.251 179.46L468.291 190.31C468.151 191.01 468.081 191.687 468.081 192.34C468.081 194.44 468.711 196.12 469.971 197.38C471.231 198.593 472.934 199.2 475.081 199.2H480.821C483.294 199.2 485.347 198.43 486.981 196.89C488.614 195.303 489.711 193.11 490.271 190.31H493.911C493.164 194.183 491.647 197.193 489.361 199.34C487.074 201.487 484.227 202.56 480.821 202.56H474.941Z" fill="#B2B3B3"/>
<path d="M430.461 167.07H434.101L433.051 173.02C434.637 170.92 436.364 169.31 438.231 168.19C440.097 167.07 441.941 166.51 443.761 166.51H448.311C451.064 166.51 453.234 167.303 454.821 168.89C456.454 170.477 457.271 172.647 457.271 175.4C457.271 175.913 457.177 176.823 456.991 178.13L452.791 202H449.081L453.281 178.06C453.421 177.267 453.491 176.52 453.491 175.82C453.491 174 453.024 172.553 452.091 171.48C451.157 170.407 449.851 169.87 448.171 169.87H443.621C441.521 169.87 439.374 170.733 437.181 172.46C435.034 174.187 433.331 176.427 432.071 179.18L428.081 202H424.301L430.461 167.07Z" fill="#B2B3B3"/>
<path d="M397.566 202.56C394.206 202.56 391.546 201.673 389.586 199.9C387.626 198.08 386.646 195.7 386.646 192.76C386.646 191.967 386.716 191.15 386.856 190.31L388.746 179.46C389.493 175.4 391.079 172.227 393.506 169.94C395.979 167.653 399.059 166.51 402.746 166.51H408.416C411.589 166.51 414.109 167.42 415.976 169.24C417.889 171.06 418.846 173.487 418.846 176.52C418.846 177.36 418.776 178.247 418.636 179.18L417.656 185.06H391.546L390.636 190.31C390.543 190.777 390.496 191.43 390.496 192.27C390.496 194.37 391.126 196.05 392.386 197.31C393.646 198.57 395.373 199.2 397.566 199.2H402.886C405.546 199.2 407.716 198.5 409.396 197.1C411.123 195.7 412.219 193.74 412.686 191.22H416.396C415.743 194.813 414.226 197.613 411.846 199.62C409.513 201.58 406.526 202.56 402.886 202.56H397.566ZM414.436 181.84L414.926 179.18C415.066 178.387 415.136 177.663 415.136 177.01C415.136 174.817 414.529 173.09 413.316 171.83C412.103 170.523 410.469 169.87 408.416 169.87H402.746C400.086 169.87 397.846 170.733 396.026 172.46C394.206 174.14 393.039 176.473 392.526 179.46L392.106 181.84H414.436Z" fill="#B2B3B3"/>
<path d="M354.916 216.21C351.882 216.21 349.502 215.44 347.776 213.9C346.049 212.407 345.302 210.423 345.536 207.95H349.316C349.222 209.443 349.689 210.633 350.716 211.52C351.742 212.453 353.142 212.92 354.916 212.92H360.796C363.362 212.92 365.509 212.057 367.236 210.33C369.009 208.65 370.152 206.293 370.666 203.26L371.926 196.4C370.479 198.127 368.892 199.503 367.166 200.53C365.439 201.51 363.759 202 362.126 202H357.016C353.842 202 351.346 201.09 349.526 199.27C347.706 197.403 346.796 194.93 346.796 191.85C346.796 191.243 346.889 190.287 347.076 188.98L348.686 179.95C349.386 175.797 350.996 172.53 353.516 170.15C356.036 167.723 359.139 166.51 362.826 166.51H368.006C369.779 166.51 371.436 166.977 372.976 167.91C374.516 168.797 375.659 169.987 376.406 171.48L377.176 167.07H380.816L374.446 203.26C373.699 207.32 372.112 210.493 369.686 212.78C367.306 215.067 364.342 216.21 360.796 216.21H354.916ZM362.056 198.64C364.436 198.64 366.652 197.73 368.706 195.91C370.806 194.043 372.276 191.873 373.116 189.4L375.216 177.78C375.216 175.493 374.516 173.603 373.116 172.11C371.762 170.617 370.059 169.87 368.006 169.87H362.896C360.236 169.87 357.949 170.78 356.036 172.6C354.169 174.373 352.956 176.823 352.396 179.95L350.856 188.98C350.716 189.82 350.646 190.637 350.646 191.43C350.646 193.67 351.206 195.443 352.326 196.75C353.492 198.01 355.079 198.64 357.086 198.64H362.056Z" fill="#B2B3B3"/>
<path d="M333.001 187.72H310.881L303.041 202H298.841L326.141 153H327.961C329.081 153 329.781 153.723 330.061 155.17L339.581 202H335.801L333.001 187.72ZM312.701 184.43H332.371L327.261 158.18H327.191L312.701 184.43Z" fill="#B2B3B3"/>
<path d="M258.181 202.56C254.821 202.56 252.161 201.673 250.201 199.9C248.241 198.08 247.261 195.7 247.261 192.76C247.261 191.967 247.331 191.15 247.471 190.31L249.361 179.46C250.108 175.4 251.695 172.227 254.121 169.94C256.595 167.653 259.675 166.51 263.361 166.51H269.031C272.205 166.51 274.725 167.42 276.591 169.24C278.505 171.06 279.461 173.487 279.461 176.52C279.461 177.36 279.391 178.247 279.251 179.18L278.271 185.06H252.161L251.251 190.31C251.158 190.777 251.111 191.43 251.111 192.27C251.111 194.37 251.741 196.05 253.001 197.31C254.261 198.57 255.988 199.2 258.181 199.2H263.501C266.161 199.2 268.331 198.5 270.011 197.1C271.738 195.7 272.835 193.74 273.301 191.22H277.011C276.358 194.813 274.841 197.613 272.461 199.62C270.128 201.58 267.141 202.56 263.501 202.56H258.181ZM275.051 181.84L275.541 179.18C275.681 178.387 275.751 177.663 275.751 177.01C275.751 174.817 275.145 173.09 273.931 171.83C272.718 170.523 271.085 169.87 269.031 169.87H263.361C260.701 169.87 258.461 170.733 256.641 172.46C254.821 174.14 253.655 176.473 253.141 179.46L252.721 181.84H275.051Z" fill="#B2B3B3"/>
<path d="M229.689 167.07H233.329L232.349 172.74C233.703 170.92 235.336 169.497 237.249 168.47C239.209 167.443 241.239 166.93 243.339 166.93H246.489L245.929 170.29H243.339C240.306 170.29 237.623 171.27 235.289 173.23C233.003 175.19 231.579 177.733 231.019 180.86L227.309 202H223.529L229.689 167.07Z" fill="#B2B3B3"/>
<path d="M195.19 202.56C192.203 202.56 189.823 201.86 188.05 200.46C186.276 199.06 185.39 197.17 185.39 194.79C185.39 194.463 185.436 193.927 185.53 193.18L186.02 190.38C186.533 187.44 187.84 185.177 189.94 183.59C192.086 182.003 194.793 181.21 198.06 181.21H202.61C204.243 181.21 205.946 181.49 207.72 182.05C209.54 182.563 210.963 183.263 211.99 184.15L213.18 177.29C213.273 176.543 213.32 176.007 213.32 175.68C213.32 173.86 212.783 172.437 211.71 171.41C210.636 170.337 209.143 169.8 207.23 169.8H201.77C199.483 169.8 197.593 170.313 196.1 171.34C194.606 172.367 193.696 173.743 193.37 175.47H189.66C190.126 172.717 191.456 170.547 193.65 168.96C195.843 167.327 198.55 166.51 201.77 166.51H207.23C210.263 166.51 212.643 167.28 214.37 168.82C216.143 170.36 217.03 172.437 217.03 175.05C217.03 175.75 216.96 176.497 216.82 177.29L212.48 202H208.91L209.89 196.54C208.256 198.453 206.553 199.947 204.78 201.02C203.006 202.047 201.233 202.56 199.46 202.56H195.19ZM199.6 199.2C201.56 199.2 203.543 198.5 205.55 197.1C207.603 195.7 209.306 193.857 210.66 191.57L211.29 187.79C210.45 186.81 209.213 186.017 207.58 185.41C205.993 184.803 204.336 184.5 202.61 184.5H198.06C195.82 184.5 193.953 185.037 192.46 186.11C191.013 187.137 190.126 188.583 189.8 190.45L189.31 193.18C189.216 193.74 189.17 194.137 189.17 194.37C189.17 195.863 189.706 197.053 190.78 197.94C191.853 198.78 193.323 199.2 195.19 199.2H199.6Z" fill="#B2B3B3"/>
<path d="M183.771 167.07L170.471 198.57C169.957 199.783 169.374 200.67 168.721 201.23C168.114 201.743 167.321 202 166.341 202H164.591L160.321 173.86L145.971 202H144.221C143.287 202 142.564 201.72 142.051 201.16C141.584 200.6 141.327 199.737 141.281 198.57L139.041 167.07H142.821L144.571 197.8L159.761 168.05H161.161C162.187 168.05 162.771 168.68 162.911 169.94L167.111 197.8L179.641 167.07H183.771Z" fill="#B2B3B3"/>
<path d="M123.011 202C120.071 202 117.901 201.487 116.501 200.46C115.147 199.433 114.471 197.707 114.471 195.28C114.471 194.207 114.564 193.18 114.751 192.2L118.601 170.43H112.511L113.071 167.07H119.231L121.121 156.5H124.831L122.941 167.07H132.041L131.481 170.43H122.381L118.531 192.2C118.391 193.04 118.321 193.787 118.321 194.44C118.321 195.933 118.717 197.007 119.511 197.66C120.351 198.313 121.681 198.64 123.501 198.64H126.441L125.881 202H123.011Z" fill="#B2B3B3"/>
<path d="M94.2014 170.43H88.1814L88.7414 167.07H94.7614L95.3214 164.13C96.0214 160.303 97.4214 157.457 99.5214 155.59C101.668 153.677 104.561 152.72 108.201 152.72H110.161L109.601 156.01H107.571C105.191 156.01 103.301 156.64 101.901 157.9C100.548 159.113 99.5914 161.19 99.0314 164.13L98.5414 167.07H106.871L106.311 170.43H97.9114L92.3814 202H88.6014L94.2014 170.43Z" fill="#B2B3B3"/>
<path d="M57.6182 202.56C54.2115 202.56 51.5282 201.65 49.5682 199.83C47.6082 197.963 46.6282 195.49 46.6282 192.41C46.6282 191.523 46.6982 190.637 46.8382 189.75L48.6582 179.32C49.3582 175.307 50.9682 172.18 53.4882 169.94C56.0082 167.653 59.1582 166.51 62.9382 166.51H68.4682C71.9215 166.51 74.6282 167.443 76.5882 169.31C78.5948 171.13 79.5982 173.58 79.5982 176.66C79.5982 177.5 79.5282 178.387 79.3882 179.32L77.5682 189.75C76.8682 193.763 75.2348 196.913 72.6682 199.2C70.1482 201.44 66.9748 202.56 63.1482 202.56H57.6182ZM63.1482 199.2C65.9482 199.2 68.3048 198.36 70.2182 196.68C72.1315 194.953 73.3448 192.643 73.8582 189.75L75.6782 179.32C75.8182 178.62 75.8882 177.92 75.8882 177.22C75.8882 174.98 75.2115 173.207 73.8582 171.9C72.5515 170.547 70.7548 169.87 68.4682 169.87H62.9382C60.1382 169.87 57.8048 170.71 55.9382 172.39C54.1182 174.023 52.9515 176.333 52.4382 179.32L50.6182 189.75C50.4782 190.497 50.4082 191.22 50.4082 191.92C50.4082 194.16 51.0382 195.933 52.2982 197.24C53.6048 198.547 55.3782 199.2 57.6182 199.2H63.1482Z" fill="#B2B3B3"/>
<path d="M15.47 202.56C11.69 202.56 8.72665 201.603 6.57999 199.69C4.43332 197.777 3.35999 195.14 3.35999 191.78C3.35999 190.707 3.45332 189.703 3.63999 188.77H7.34999C7.20999 189.61 7.13999 190.427 7.13999 191.22C7.13999 193.647 7.86332 195.56 9.30999 196.96C10.7567 198.36 12.81 199.06 15.47 199.06H23.31C26.39 199.06 28.8867 198.43 30.8 197.17C32.76 195.863 33.95 194.043 34.37 191.71L35.21 186.95C35.2567 186.717 35.28 186.39 35.28 185.97C35.28 184.43 34.72 183.123 33.6 182.05C32.5267 180.977 31.01 180.277 29.05 179.95L16.87 177.85C14.0233 177.383 11.8067 176.357 10.22 174.77C8.63332 173.183 7.83999 171.223 7.83999 168.89C7.83999 168.517 7.88665 167.957 7.97999 167.21L8.74999 163.15C9.35665 159.743 10.92 157.107 13.44 155.24C16.0067 153.373 19.2733 152.44 23.24 152.44H31.15C34.65 152.44 37.38 153.327 39.34 155.1C41.3467 156.873 42.35 159.277 42.35 162.31C42.35 163.103 42.28 163.967 42.14 164.9H38.43C38.57 164.2 38.64 163.547 38.64 162.94C38.64 160.793 37.9633 159.09 36.61 157.83C35.2567 156.523 33.4367 155.87 31.15 155.87H23.24C20.3 155.87 17.8967 156.523 16.03 157.83C14.1633 159.09 13.02 160.863 12.6 163.15L11.83 167.21C11.7833 167.49 11.76 167.887 11.76 168.4C11.76 169.94 12.2967 171.223 13.37 172.25C14.4433 173.277 15.9367 173.977 17.85 174.35L29.96 176.52C32.8533 176.987 35.1167 178.013 36.75 179.6C38.3833 181.187 39.2 183.1 39.2 185.34C39.2 185.667 39.1533 186.203 39.06 186.95L38.22 191.71C37.5667 195.163 35.9567 197.847 33.39 199.76C30.87 201.627 27.5567 202.56 23.45 202.56H15.47Z" fill="#B2B3B3"/>
<path fill-rule="evenodd" clip-rule="evenodd" d="M137 50L127.829 5.63304C126.282 -0.343313 119.491 0.00375839 119.491 0.00375839L104.465 0.473985C88.6076 0.955407 78.4702 15.4272 78.4702 15.4272L54 50H137Z" fill="#EF3F24"/>
<path fill-rule="evenodd" clip-rule="evenodd" d="M96 77L105.659 133.107C107.571 142.417 117.591 141.997 117.591 141.997H151.29C158.002 141.997 155.571 135.555 155.571 135.555L144.225 77H96Z" fill="#696968"/>
<path fill-rule="evenodd" clip-rule="evenodd" d="M35.5285 77L3.11127 128.006C-5.31449 141.026 6.04274 141.958 6.04274 141.958H41.9429C47.0715 142.68 52.9344 133.793 52.9344 133.793L88 77H35.5285Z" fill="#696968"/>
<path d="M51.6484 54H138.025L140 61H46L51.6484 54Z" fill="#EF3F24"/>
<path d="M43.2932 65H141L143 72H38L43.2932 65Z" fill="#EF3F24"/>
<path d="M478.872 142C469.025 142 461.252 139.929 455.551 135.786C449.85 131.644 447 126.078 447 119.087C447 118.052 447.13 116.498 447.389 114.427L448.749 106.854C450.304 98.4401 454.32 91.9029 460.798 87.2427C467.406 82.4531 475.827 80.0582 486.062 80.0582H497.723C501.48 80.0582 505.496 80.5113 509.772 81.4175C514.177 82.3236 517.999 83.5534 521.238 85.1068L522.987 75.0097C523.116 74.4919 523.181 73.7152 523.181 72.6796C523.181 70.0906 522.274 68.0194 520.46 66.466C518.776 64.9126 516.379 64.1359 513.27 64.1359H496.751C492.994 64.1359 489.884 64.9773 487.423 66.6602C484.961 68.343 483.471 70.6084 482.953 73.4563H457.3C459.114 63.4887 463.584 55.7864 470.709 50.3495C477.835 44.7832 486.904 42 497.917 42H514.436C525.319 42 533.935 44.4595 540.283 49.3786C546.761 54.2977 550 60.8997 550 69.1845C550 71.1262 549.806 73.068 549.417 75.0097L537.757 140.447H513.27L515.408 128.796C511.391 132.939 507.116 136.175 502.581 138.505C498.176 140.835 494.03 142 490.143 142H478.872ZM493.642 121.806C498.306 121.806 502.775 120.576 507.051 118.117C511.326 115.657 514.695 112.356 517.157 108.214L517.74 104.913C516.055 103.359 513.399 102.129 509.772 101.223C506.144 100.317 502.257 99.8641 498.111 99.8641H486.062C482.823 99.8641 480.167 100.641 478.094 102.194C476.021 103.618 474.726 105.689 474.208 108.408L473.236 113.456C472.718 115.916 473.365 117.922 475.179 119.476C477.123 121.029 479.843 121.806 483.342 121.806H493.642Z" fill="#EF3F24"/>
<path d="M386.619 142C382.937 142 380.016 141.038 377.857 139.114C375.698 137.062 374.175 133.856 373.286 129.495L355 46H381.095L392.143 111.988H392.524L426.619 46H455L399.952 142H386.619Z" fill="#EF3F24"/>
<path d="M274.284 142C262.766 142 253.473 139.152 246.406 133.456C239.468 127.631 236 119.994 236 110.544C236 108.214 236.196 105.883 236.589 103.553L240.712 80.835C242.937 68.6667 248.107 59.1521 256.222 52.2913C264.337 45.4304 274.546 42 286.85 42H304.323C316.234 42 325.657 44.8479 332.595 50.5437C339.532 56.11 343 63.6828 343 73.2621C343 74.6861 342.738 77.2104 342.215 80.835L338.092 103.553C335.867 115.722 330.762 125.172 322.778 131.903C314.794 138.634 304.454 142 291.758 142H274.284ZM292.739 119.282C297.713 119.282 301.902 117.728 305.305 114.621C308.708 111.385 310.867 106.984 311.783 101.417L315.121 82.5825C315.383 80.5113 315.514 79.0874 315.514 78.3107C315.514 74.1683 314.336 70.8673 311.98 68.4078C309.755 65.9482 306.613 64.7184 302.556 64.7184H285.868C280.894 64.7184 276.706 66.3366 273.303 69.5728C270.031 72.6796 267.936 77.0162 267.02 82.5825L263.683 101.417C263.421 103.489 263.29 104.977 263.29 105.883C263.29 110.026 264.402 113.327 266.628 115.786C268.983 118.117 272.125 119.282 276.051 119.282H292.739Z" fill="#EF3F24"/>
<path d="M200.676 142C191.153 142 184.075 140.191 179.442 136.572C174.81 132.825 172.493 127.074 172.493 119.32C172.493 116.865 172.815 113.828 173.458 110.209L180.987 67.7569H164L167.861 45.2708H185.619L190.831 16H216.311L211.099 45.2708H236L232.139 67.7569H207.239L199.903 109.046C199.646 110.855 199.517 112.083 199.517 112.729C199.517 117.252 201.898 119.514 206.66 119.514H223.067L219.013 142H200.676Z" fill="#EF3F24"/>
</svg>
