<?xml version="1.0" encoding="iso-8859-1"?>
<!-- Uploaded to: SVG Repo, www.svgrepo.com, Generator: SVG Repo Mixer Tools -->
<svg fill="#000000" height="800px" width="800px" version="1.1" id="Layer_1" xmlns="http://www.w3.org/2000/svg" xmlns:xlink="http://www.w3.org/1999/xlink" 
	 viewBox="0 0 512 512" xml:space="preserve">
<g transform="translate(1 1)">
	<g>
		<g>
			<path d="M75.8,357.4c-14.507,0-25.6,11.093-25.6,25.6c0,14.507,11.093,25.6,25.6,25.6s25.6-11.093,25.6-25.6
				C101.4,368.493,90.307,357.4,75.8,357.4z M75.8,391.533c-5.12,0-8.533-3.413-8.533-8.533s3.413-8.533,8.533-8.533
				s8.533,3.413,8.533,8.533S80.92,391.533,75.8,391.533z"/>
			<path d="M383,357.4c-14.507,0-25.6,11.093-25.6,25.6c0,14.507,11.093,25.6,25.6,25.6c14.507,0,25.6-11.093,25.6-25.6
				C408.6,368.493,397.507,357.4,383,357.4z M383,391.533c-5.12,0-8.533-3.413-8.533-8.533s3.413-8.533,8.533-8.533
				s8.533,3.413,8.533,8.533S388.12,391.533,383,391.533z"/>
			<path d="M355.693,195.267l85.333,17.067c0.853,0,0.853,0,1.707,0c1.707,0,4.267-0.853,5.12-1.707
				c2.56-1.707,3.413-4.267,3.413-6.827v-68.267c0-5.12-3.413-8.533-8.533-8.533H357.4c-5.12,0-8.533,3.413-8.533,8.533v51.2
				C348.867,191,351.427,194.413,355.693,195.267z M365.933,144.067H434.2v49.493l-68.267-13.653V144.067z"/>
			<path d="M511,280.6v-42.667c0-1.51-0.304-2.865-0.853-4.035v-38.632c0-0.853,0-0.853,0-1.707
				c-17.92-83.627-55.467-123.733-116.053-126.293h-71.68h0c-0.853,0-0.853,0-1.707,0H280.6h-0.853
				c-13.653,0-24.747,11.093-25.6,24.747l-6.827,195.413c0,3.636,0.581,7.077,1.729,10.24H178.2v-25.6
				c0-5.12-3.413-8.533-8.533-8.533h-34.133H101.4c-5.12,0-8.533,3.413-8.533,8.533v25.6h-30.72C27.16,297.667-1,325.827-1,360.813
				V383c0,5.12,3.413,8.533,8.533,8.533h9.136c4.075,29.155,28.753,51.2,59.131,51.2c30.378,0,55.056-22.045,59.131-51.2h9.136
				c5.12,0,8.533-3.413,8.533-8.533v-17.067h145.067V383c0,5.12,3.413,8.533,8.533,8.533h17.669
				c4.075,29.155,28.753,51.2,59.131,51.2c30.378,0,55.056-22.045,59.131-51.2H459.8c5.12,0,8.533-3.413,8.533-8.533v-17.067h25.6
				c4.267,0,7.68-3.413,8.533-6.827l5.12-32.427c0.761-6.849-0.522-13.017-4.438-18.509c4.621-4.418,7.444-10.639,6.998-17.331
				v-6.205C510.696,283.466,511,282.11,511,280.6z M493.933,272.067h-17.067v-25.6h17.067V272.067z M493.933,196.973V229.4h-25.6
				c-5.12,0-8.533,3.413-8.533,8.533V280.6c0,5.12,3.413,8.533,8.533,8.533h25.6v1.707c0,3.413-2.56,6.827-6.827,6.827h-4.267H434.2
				h-14.507h-73.387h-30.72c-2.56,0-5.12-0.853-6.827-2.56s-2.56-4.267-2.56-6.827l7.68-195.413c0-4.267,3.413-7.68,8.533-7.68
				l71.68-0.853C446.147,86.893,476.867,121.88,493.933,196.973z M266.947,295.107c-1.707-1.707-2.56-4.267-2.56-6.827
				l6.827-195.413c0-4.267,4.267-7.68,8.533-7.68l17.853-0.85c-0.504,1.346-0.902,2.742-1.184,4.179
				c-0.273,1.166-0.456,2.332-0.456,3.498l-6.827,195.413v0l0,0c0,3.559,0.557,6.931,1.657,10.039
				c0.017,0.067,0.033,0.134,0.05,0.201h-17.067C271.213,297.667,268.653,296.813,266.947,295.107z M161.133,297.667h-17.067V280.6
				h17.067V297.667z M109.933,280.6H127v17.067h-17.067V280.6z M16.067,360.813c0-25.6,20.48-46.08,46.08-46.08H101.4h34.133
				l-0.832,58.246c-4.396-26.613-26.037-46.974-53.299-49.449c-0.203-0.019-0.409-0.029-0.613-0.046
				c-0.699-0.056-1.397-0.114-2.103-0.147c-0.957-0.046-1.919-0.072-2.887-0.072s-1.93,0.026-2.887,0.072
				c-0.706,0.033-1.404,0.09-2.103,0.147c-0.204,0.017-0.41,0.027-0.613,0.046c-27.767,2.52-49.707,23.597-53.528,50.936h-0.603
				V360.813z M75.8,425.667c-23.893,0-42.667-18.773-42.667-42.667s18.773-42.667,42.667-42.667
				c23.893,0,42.667,18.773,42.667,42.667S99.693,425.667,75.8,425.667z M152.6,348.867v-34.133h17.067h104.107h35.831
				c-0.299,0.346-0.599,0.691-0.889,1.045c-6.57,7.751-10.429,17.459-10.975,27.942c-0.003,0.051-0.008,0.101-0.01,0.152
				c-0.04,0.808-0.064,1.619-0.064,2.435v2.56H152.6z M383,425.667c-23.893,0-42.667-18.773-42.667-42.667
				s18.773-42.667,42.667-42.667c23.893,0,42.667,18.773,42.667,42.667S406.893,425.667,383,425.667z M451.267,374.467h-9.136
				c-3.821-27.339-25.761-48.416-53.528-50.936c-0.203-0.019-0.409-0.029-0.613-0.046c-0.699-0.056-1.397-0.114-2.103-0.147
				c-0.957-0.046-1.919-0.072-2.887-0.072s-1.93,0.026-2.887,0.072c-0.706,0.033-1.404,0.09-2.103,0.147
				c-0.204,0.017-0.41,0.027-0.613,0.046c-27.767,2.52-49.707,23.597-53.528,50.936h-9.136V357.4v-11.093
				c0-0.533,0.014-1.064,0.042-1.592c0.056-1.056,0.167-2.1,0.331-3.13c0.409-2.575,1.144-5.061,2.161-7.411
				c0.407-0.94,0.858-1.858,1.352-2.752c1.234-2.234,2.732-4.315,4.447-6.197c5.831-6.397,14.175-10.491,23.241-10.491h73.387
				c2.964,0,5.847,0.446,8.594,1.259c0.696,0.601,1.526,1.058,2.5,1.301c2.981,0.994,5.671,2.418,8.064,4.159
				c6.551,5.113,11.136,12.696,12.181,21.175c0.031,0.271,0.067,0.541,0.092,0.813c0.027,0.285,0.049,0.571,0.068,0.858
				c0.042,0.667,0.075,1.336,0.075,2.009V357.4V374.467z M491.373,324.12l-4.267,24.747h-17.92v-2.56
				c0-11.947-4.267-23.04-11.947-31.573h26.453c3.413,0,5.12,1.707,5.973,2.56C490.52,319,492.227,320.707,491.373,324.12z"/>
			<path d="M357.4,246.467h17.067c5.12,0,8.533-3.413,8.533-8.533s-3.413-8.533-8.533-8.533H357.4c-5.12,0-8.533,3.413-8.533,8.533
				S352.28,246.467,357.4,246.467z"/>
		</g>
	</g>
</g>
</svg>